<svg width="586" height="550" viewBox="0 0 586 550" fill="none" xmlns="http://www.w3.org/2000/svg">
<path d="M140.965 544.307C70.1576 544.307 28.542 509.95 6.56677 467.681L74.7372 427.566C81.2592 438.658 88.0538 449.313 96.7837 457.417C106.897 466.806 119.509 472.708 136.934 472.708C152.847 472.708 167.078 469.71 177.207 459.672C187.214 449.755 192.175 434.002 192.28 411.016L276.262 133.32V411.563C276.262 457.862 262.341 490.813 238.953 512.244C215.489 533.744 181.782 544.307 140.965 544.307Z" stroke="#131313" stroke-width="10"/>
<path d="M140.965 544.307C70.1576 544.307 28.542 509.95 6.56677 467.681L74.7372 427.566C81.2592 438.658 88.0538 449.313 96.7837 457.417C106.897 466.806 119.509 472.708 136.934 472.708C152.847 472.708 167.078 469.71 177.207 459.672C187.214 449.755 192.175 434.002 192.28 411.016L276.262 133.32V411.563C276.262 457.862 262.341 490.813 238.953 512.244C215.489 533.744 181.782 544.307 140.965 544.307Z" stroke="white" stroke-opacity="0.05" stroke-width="10"/>
<path d="M278.938 44.6381C278.938 66.302 260.423 84.2762 237.062 84.2762C213.702 84.2762 195.188 66.302 195.188 44.6381C195.188 22.9742 213.702 5 237.062 5C260.423 5 278.938 22.9742 278.938 44.6381Z" stroke="#131313" stroke-width="10"/>
<path d="M278.938 44.6381C278.938 66.302 260.423 84.2762 237.062 84.2762C213.702 84.2762 195.188 66.302 195.188 44.6381C195.188 22.9742 213.702 5 237.062 5C260.423 5 278.938 22.9742 278.938 44.6381Z" stroke="white" stroke-opacity="0.05" stroke-width="10"/>
<mask id="path-3-inside-1" fill="white">
<path d="M585.945 176.634L509.414 221.667C494.652 196.21 481.219 174.67 449.004 174.67C418.129 174.67 398.656 186.416 398.656 232.107L304.68 542.86V230.819C304.68 136.163 361.73 93.0751 444.977 93.0751C520.148 93.0751 563.789 130.94 585.937 176.641"/>
</mask>
<path d="M509.414 221.667L500.763 226.683L505.812 235.389L514.485 230.286L509.414 221.667ZM398.656 232.107L408.228 235.001L408.656 233.586V232.107H398.656ZM304.68 542.86H294.68L314.252 545.754L304.68 542.86ZM580.874 168.015L504.343 213.048L514.485 230.286L591.017 185.252L580.874 168.015ZM518.065 216.651C510.801 204.124 503.06 191.041 492.557 181.292C481.559 171.085 467.744 164.67 449.004 164.67V184.67C462.478 184.67 471.488 189.025 478.951 195.951C486.909 203.337 493.266 213.753 500.763 226.683L518.065 216.651ZM449.004 164.67C432.619 164.67 416.744 167.726 405.213 179.151C393.709 190.55 388.656 208.163 388.656 232.107H408.656C408.656 210.36 413.34 199.254 419.291 193.358C425.215 187.487 434.513 184.67 449.004 184.67V164.67ZM389.084 229.212L295.108 539.965L314.252 545.754L408.228 235.001L389.084 229.212ZM314.68 542.86V230.819H294.68V542.86H314.68ZM314.68 230.819C314.68 185.549 328.258 154.082 350.367 133.824C372.626 113.428 404.965 103.075 444.977 103.075V83.0751C401.742 83.0751 363.933 94.2666 336.855 119.078C309.627 144.028 294.68 181.433 294.68 230.819H314.68ZM444.977 103.075C515.975 103.075 556.307 138.431 576.939 181.003L594.936 172.28C571.271 123.448 524.322 83.0751 444.977 83.0751V103.075Z" fill="#131313" mask="url(#path-3-inside-1)"/>
<path d="M509.414 221.667L500.763 226.683L505.812 235.389L514.485 230.286L509.414 221.667ZM398.656 232.107L408.228 235.001L408.656 233.586V232.107H398.656ZM304.68 542.86H294.68L314.252 545.754L304.68 542.86ZM580.874 168.015L504.343 213.048L514.485 230.286L591.017 185.252L580.874 168.015ZM518.065 216.651C510.801 204.124 503.06 191.041 492.557 181.292C481.559 171.085 467.744 164.67 449.004 164.67V184.67C462.478 184.67 471.488 189.025 478.951 195.951C486.909 203.337 493.266 213.753 500.763 226.683L518.065 216.651ZM449.004 164.67C432.619 164.67 416.744 167.726 405.213 179.151C393.709 190.55 388.656 208.163 388.656 232.107H408.656C408.656 210.36 413.34 199.254 419.291 193.358C425.215 187.487 434.513 184.67 449.004 184.67V164.67ZM389.084 229.212L295.108 539.965L314.252 545.754L408.228 235.001L389.084 229.212ZM314.68 542.86V230.819H294.68V542.86H314.68ZM314.68 230.819C314.68 185.549 328.258 154.082 350.367 133.824C372.626 113.428 404.965 103.075 444.977 103.075V83.0751C401.742 83.0751 363.933 94.2666 336.855 119.078C309.627 144.028 294.68 181.433 294.68 230.819H314.68ZM444.977 103.075C515.975 103.075 556.307 138.431 576.939 181.003L594.936 172.28C571.271 123.448 524.322 83.0751 444.977 83.0751V103.075Z" fill="white" fill-opacity="0.05" mask="url(#path-3-inside-1)"/>
</svg>
