<svg width="750" height="704" viewBox="0 0 750 704" fill="none" xmlns="http://www.w3.org/2000/svg">
<mask id="mask0" mask-type="alpha" maskUnits="userSpaceOnUse" x="0" y="-1" width="750" height="705">
<path d="M180.433 698.103C88.574 698.103 34.7387 653.154 6.5542 598.089L96.1606 545.36C104.725 559.986 113.503 573.941 124.834 584.461C137.531 596.248 153.338 603.659 175.273 603.659C195.509 603.659 213.264 599.837 225.836 587.378C238.29 575.036 244.611 555.26 244.715 525.884L355.01 161.182V526.794C355.01 586.344 337.096 628.936 306.801 656.696C276.431 684.525 232.904 698.103 180.433 698.103Z" stroke="#252525" stroke-width="10"/>
<path d="M180.433 698.103C88.574 698.103 34.7387 653.154 6.5542 598.089L96.1606 545.36C104.725 559.986 113.503 573.941 124.834 584.461C137.531 596.248 153.338 603.659 175.273 603.659C195.509 603.659 213.264 599.837 225.836 587.378C238.29 575.036 244.611 555.26 244.715 525.884L355.01 161.182V526.794C355.01 586.344 337.096 628.936 306.801 656.696C276.431 684.525 232.904 698.103 180.433 698.103Z" stroke="white" stroke-opacity="0.1" stroke-width="10"/>
<path d="M358.435 57.1359C358.435 85.7022 334.044 109.272 303.436 109.272C272.828 109.272 248.437 85.7022 248.437 57.1359C248.437 28.5695 272.828 4.99988 303.436 4.99988C334.044 4.99988 358.435 28.5695 358.435 57.1359Z" stroke="#252525" stroke-width="10"/>
<path d="M358.435 57.1359C358.435 85.7022 334.044 109.272 303.436 109.272C272.828 109.272 248.437 85.7022 248.437 57.1359C248.437 28.5695 272.828 4.99988 303.436 4.99988C334.044 4.99988 358.435 28.5695 358.435 57.1359Z" stroke="white" stroke-opacity="0.1" stroke-width="10"/>
<mask id="path-3-inside-1" mask-type="luminance" fill="white">
<path d="M750 226.089L652.041 283.73C633.146 251.146 615.952 223.575 574.717 223.575C535.198 223.575 510.273 238.61 510.273 297.093L389.985 694.852V295.444C389.985 174.287 463.009 119.135 569.562 119.135C665.781 119.135 721.64 167.601 749.99 226.098"/>
</mask>
<path d="M652.041 283.73L643.39 288.747L648.439 297.453L657.113 292.349L652.041 283.73ZM510.273 297.093L519.845 299.987L520.273 298.572V297.093H510.273ZM389.985 694.852H379.985L399.557 697.746L389.985 694.852ZM744.928 217.47L646.97 275.112L657.113 292.349L755.071 234.707L744.928 217.47ZM660.692 278.714C651.361 262.623 641.647 246.251 628.559 234.104C614.977 221.497 597.967 213.575 574.717 213.575V233.575C592.702 233.575 604.906 239.437 614.954 248.763C625.496 258.547 633.826 272.253 643.39 288.747L660.692 278.714ZM574.717 213.575C554.01 213.575 534.611 217.453 520.637 231.299C506.689 245.12 500.273 266.753 500.273 297.093H520.273C520.273 268.95 526.32 253.824 534.714 245.506C543.082 237.214 555.905 233.575 574.717 233.575V213.575ZM500.701 294.198L380.413 691.957L399.557 697.746L519.845 299.987L500.701 294.198ZM399.985 694.852V295.444H379.985V694.852H399.985ZM399.985 295.444C399.985 236.923 417.556 195.816 446.572 169.228C475.738 142.503 517.897 129.135 569.562 129.135V109.135C514.674 109.135 467.045 123.342 433.06 154.483C398.925 185.761 379.985 232.808 379.985 295.444H399.985ZM569.562 129.135C661.607 129.135 714.159 175.092 740.991 230.459L758.989 221.737C729.122 160.109 669.955 109.135 569.562 109.135V129.135Z" fill="#252525" mask="url(#path-3-inside-1)"/>
<path d="M652.041 283.73L643.39 288.747L648.439 297.453L657.113 292.349L652.041 283.73ZM510.273 297.093L519.845 299.987L520.273 298.572V297.093H510.273ZM389.985 694.852H379.985L399.557 697.746L389.985 694.852ZM744.928 217.47L646.97 275.112L657.113 292.349L755.071 234.707L744.928 217.47ZM660.692 278.714C651.361 262.623 641.647 246.251 628.559 234.104C614.977 221.497 597.967 213.575 574.717 213.575V233.575C592.702 233.575 604.906 239.437 614.954 248.763C625.496 258.547 633.826 272.253 643.39 288.747L660.692 278.714ZM574.717 213.575C554.01 213.575 534.611 217.453 520.637 231.299C506.689 245.12 500.273 266.753 500.273 297.093H520.273C520.273 268.95 526.32 253.824 534.714 245.506C543.082 237.214 555.905 233.575 574.717 233.575V213.575ZM500.701 294.198L380.413 691.957L399.557 697.746L519.845 299.987L500.701 294.198ZM399.985 694.852V295.444H379.985V694.852H399.985ZM399.985 295.444C399.985 236.923 417.556 195.816 446.572 169.228C475.738 142.503 517.897 129.135 569.562 129.135V109.135C514.674 109.135 467.045 123.342 433.06 154.483C398.925 185.761 379.985 232.808 379.985 295.444H399.985ZM569.562 129.135C661.607 129.135 714.159 175.092 740.991 230.459L758.989 221.737C729.122 160.109 669.955 109.135 569.562 109.135V129.135Z" fill="white" fill-opacity="0.1" mask="url(#path-3-inside-1)"/>
</mask>
<g mask="url(#mask0)">
<rect x="-374" y="-97" width="1160" height="742" fill="#181818"/>
</g>
</svg>
